<svg xmlns="http://www.w3.org/2000/svg" viewBox="0 0 32 32" fill="none">
  <!-- Background: blue gradient rounded square, matches sidebar logo -->
  <defs>
    <linearGradient id="bg" x1="0" y1="0" x2="32" y2="32" gradientUnits="userSpaceOnUse">
      <stop offset="0%" stop-color="#2563EB"/>
      <stop offset="100%" stop-color="#3B82F6"/>
    </linearGradient>
  </defs>
  <rect width="32" height="32" rx="7" fill="url(#bg)"/>
  <!-- BriefcaseIcon path scaled from 24px viewBox to fit in 8–24 range -->
  <g transform="translate(8, 8) scale(0.667)">
    <path stroke="white" stroke-linecap="round" stroke-linejoin="round" stroke-width="1.8"
      d="M21 13.255A23.931 23.931 0 0112 15c-3.183 0-6.22-.62-9-1.745M16 6V4a2 2 0 00-2-2h-4a2 2 0 00-2 2v2m4 6h.01M5 20h14a2 2 0 002-2V8a2 2 0 00-2-2H5a2 2 0 00-2 2v10a2 2 0 002 2z"/>
  </g>
</svg>
